<mxfile host="app.diagrams.net" modified="2023-03-31T22:35:47.074Z" agent="Mozilla/5.0 (Windows NT 10.0; Win64; x64) AppleWebKit/537.36 (KHTML, like Gecko) Chrome/111.0.0.0 Safari/537.36 Edg/111.0.1661.44" version="21.1.2" etag="lOCiPm2QhO2ENFpgkfwc" type="device">
  <diagram id="JyEcbZVIb05-3V0sl5OX" name="PÃ¡gina-1">
    <mxGraphModel dx="2301" dy="924" grid="1" gridSize="10" guides="1" tooltips="1" connect="1" arrows="1" fold="1" page="1" pageScale="1" pageWidth="827" pageHeight="1169" math="0" shadow="0">
      <root>
        <mxCell id="0" />
        <mxCell id="1" parent="0" />
        <mxCell id="9ojNRoe5mzIPKdcZijmm-17" style="edgeStyle=orthogonalEdgeStyle;rounded=0;orthogonalLoop=1;jettySize=auto;html=1;entryX=0;entryY=0.5;entryDx=0;entryDy=0;" edge="1" parent="1" source="9ojNRoe5mzIPKdcZijmm-5" target="9ojNRoe5mzIPKdcZijmm-11">
          <mxGeometry relative="1" as="geometry" />
        </mxCell>
        <mxCell id="9ojNRoe5mzIPKdcZijmm-96" value="(0,*)" style="edgeLabel;html=1;align=center;verticalAlign=middle;resizable=0;points=[];" vertex="1" connectable="0" parent="9ojNRoe5mzIPKdcZijmm-17">
          <mxGeometry x="-0.6989" y="1" relative="1" as="geometry">
            <mxPoint as="offset" />
          </mxGeometry>
        </mxCell>
        <mxCell id="9ojNRoe5mzIPKdcZijmm-33" style="edgeStyle=orthogonalEdgeStyle;rounded=0;orthogonalLoop=1;jettySize=auto;html=1;entryX=1;entryY=0.5;entryDx=0;entryDy=0;" edge="1" parent="1" source="9ojNRoe5mzIPKdcZijmm-5" target="9ojNRoe5mzIPKdcZijmm-31">
          <mxGeometry relative="1" as="geometry" />
        </mxCell>
        <mxCell id="9ojNRoe5mzIPKdcZijmm-34" style="edgeStyle=orthogonalEdgeStyle;rounded=0;orthogonalLoop=1;jettySize=auto;html=1;entryX=1;entryY=0.5;entryDx=0;entryDy=0;" edge="1" parent="1" source="9ojNRoe5mzIPKdcZijmm-5" target="9ojNRoe5mzIPKdcZijmm-24">
          <mxGeometry relative="1" as="geometry" />
        </mxCell>
        <mxCell id="9ojNRoe5mzIPKdcZijmm-35" style="edgeStyle=orthogonalEdgeStyle;rounded=0;orthogonalLoop=1;jettySize=auto;html=1;exitX=0;exitY=0.5;exitDx=0;exitDy=0;entryX=1;entryY=0.5;entryDx=0;entryDy=0;" edge="1" parent="1" source="9ojNRoe5mzIPKdcZijmm-5" target="9ojNRoe5mzIPKdcZijmm-25">
          <mxGeometry relative="1" as="geometry" />
        </mxCell>
        <mxCell id="9ojNRoe5mzIPKdcZijmm-36" style="edgeStyle=orthogonalEdgeStyle;rounded=0;orthogonalLoop=1;jettySize=auto;html=1;entryX=1;entryY=0.5;entryDx=0;entryDy=0;" edge="1" parent="1" source="9ojNRoe5mzIPKdcZijmm-5" target="9ojNRoe5mzIPKdcZijmm-26">
          <mxGeometry relative="1" as="geometry" />
        </mxCell>
        <mxCell id="9ojNRoe5mzIPKdcZijmm-37" style="edgeStyle=orthogonalEdgeStyle;rounded=0;orthogonalLoop=1;jettySize=auto;html=1;entryX=1;entryY=0.5;entryDx=0;entryDy=0;" edge="1" parent="1" source="9ojNRoe5mzIPKdcZijmm-5" target="9ojNRoe5mzIPKdcZijmm-27">
          <mxGeometry relative="1" as="geometry" />
        </mxCell>
        <mxCell id="9ojNRoe5mzIPKdcZijmm-38" style="edgeStyle=orthogonalEdgeStyle;rounded=0;orthogonalLoop=1;jettySize=auto;html=1;entryX=1;entryY=0.5;entryDx=0;entryDy=0;" edge="1" parent="1" source="9ojNRoe5mzIPKdcZijmm-5" target="9ojNRoe5mzIPKdcZijmm-28">
          <mxGeometry relative="1" as="geometry" />
        </mxCell>
        <mxCell id="9ojNRoe5mzIPKdcZijmm-39" style="edgeStyle=orthogonalEdgeStyle;rounded=0;orthogonalLoop=1;jettySize=auto;html=1;entryX=1;entryY=0.5;entryDx=0;entryDy=0;" edge="1" parent="1" source="9ojNRoe5mzIPKdcZijmm-5" target="9ojNRoe5mzIPKdcZijmm-30">
          <mxGeometry relative="1" as="geometry" />
        </mxCell>
        <mxCell id="9ojNRoe5mzIPKdcZijmm-40" style="edgeStyle=orthogonalEdgeStyle;rounded=0;orthogonalLoop=1;jettySize=auto;html=1;entryX=1;entryY=0.5;entryDx=0;entryDy=0;" edge="1" parent="1" source="9ojNRoe5mzIPKdcZijmm-5" target="9ojNRoe5mzIPKdcZijmm-32">
          <mxGeometry relative="1" as="geometry" />
        </mxCell>
        <mxCell id="9ojNRoe5mzIPKdcZijmm-5" value="Pelicula" style="whiteSpace=wrap;html=1;align=center;" vertex="1" parent="1">
          <mxGeometry x="20" y="250" width="100" height="40" as="geometry" />
        </mxCell>
        <mxCell id="9ojNRoe5mzIPKdcZijmm-21" style="edgeStyle=orthogonalEdgeStyle;rounded=0;orthogonalLoop=1;jettySize=auto;html=1;entryX=1;entryY=0.5;entryDx=0;entryDy=0;" edge="1" parent="1" source="9ojNRoe5mzIPKdcZijmm-6" target="9ojNRoe5mzIPKdcZijmm-12">
          <mxGeometry relative="1" as="geometry" />
        </mxCell>
        <mxCell id="9ojNRoe5mzIPKdcZijmm-99" value="(1,*)" style="edgeLabel;html=1;align=center;verticalAlign=middle;resizable=0;points=[];" vertex="1" connectable="0" parent="9ojNRoe5mzIPKdcZijmm-21">
          <mxGeometry x="-0.3436" y="-2" relative="1" as="geometry">
            <mxPoint as="offset" />
          </mxGeometry>
        </mxCell>
        <mxCell id="9ojNRoe5mzIPKdcZijmm-63" style="edgeStyle=orthogonalEdgeStyle;rounded=0;orthogonalLoop=1;jettySize=auto;html=1;entryX=0;entryY=0.5;entryDx=0;entryDy=0;" edge="1" parent="1" source="9ojNRoe5mzIPKdcZijmm-6" target="9ojNRoe5mzIPKdcZijmm-62">
          <mxGeometry relative="1" as="geometry" />
        </mxCell>
        <mxCell id="9ojNRoe5mzIPKdcZijmm-64" style="edgeStyle=orthogonalEdgeStyle;rounded=0;orthogonalLoop=1;jettySize=auto;html=1;entryX=0;entryY=0.5;entryDx=0;entryDy=0;" edge="1" parent="1" source="9ojNRoe5mzIPKdcZijmm-6" target="9ojNRoe5mzIPKdcZijmm-56">
          <mxGeometry relative="1" as="geometry" />
        </mxCell>
        <mxCell id="9ojNRoe5mzIPKdcZijmm-65" style="edgeStyle=orthogonalEdgeStyle;rounded=0;orthogonalLoop=1;jettySize=auto;html=1;entryX=0;entryY=0.5;entryDx=0;entryDy=0;" edge="1" parent="1" source="9ojNRoe5mzIPKdcZijmm-6" target="9ojNRoe5mzIPKdcZijmm-57">
          <mxGeometry relative="1" as="geometry" />
        </mxCell>
        <mxCell id="9ojNRoe5mzIPKdcZijmm-66" style="edgeStyle=orthogonalEdgeStyle;rounded=0;orthogonalLoop=1;jettySize=auto;html=1;entryX=0;entryY=0.5;entryDx=0;entryDy=0;" edge="1" parent="1" source="9ojNRoe5mzIPKdcZijmm-6" target="9ojNRoe5mzIPKdcZijmm-58">
          <mxGeometry relative="1" as="geometry" />
        </mxCell>
        <mxCell id="9ojNRoe5mzIPKdcZijmm-67" style="edgeStyle=orthogonalEdgeStyle;rounded=0;orthogonalLoop=1;jettySize=auto;html=1;entryX=0;entryY=0.5;entryDx=0;entryDy=0;" edge="1" parent="1" source="9ojNRoe5mzIPKdcZijmm-6" target="9ojNRoe5mzIPKdcZijmm-59">
          <mxGeometry relative="1" as="geometry" />
        </mxCell>
        <mxCell id="9ojNRoe5mzIPKdcZijmm-68" style="edgeStyle=orthogonalEdgeStyle;rounded=0;orthogonalLoop=1;jettySize=auto;html=1;entryX=0;entryY=0.5;entryDx=0;entryDy=0;" edge="1" parent="1" source="9ojNRoe5mzIPKdcZijmm-6" target="9ojNRoe5mzIPKdcZijmm-60">
          <mxGeometry relative="1" as="geometry" />
        </mxCell>
        <mxCell id="9ojNRoe5mzIPKdcZijmm-69" style="edgeStyle=orthogonalEdgeStyle;rounded=0;orthogonalLoop=1;jettySize=auto;html=1;entryX=0;entryY=0.5;entryDx=0;entryDy=0;" edge="1" parent="1" source="9ojNRoe5mzIPKdcZijmm-6" target="9ojNRoe5mzIPKdcZijmm-61">
          <mxGeometry relative="1" as="geometry" />
        </mxCell>
        <mxCell id="9ojNRoe5mzIPKdcZijmm-76" style="edgeStyle=orthogonalEdgeStyle;rounded=0;orthogonalLoop=1;jettySize=auto;html=1;entryX=0;entryY=0.5;entryDx=0;entryDy=0;" edge="1" parent="1" source="9ojNRoe5mzIPKdcZijmm-6" target="9ojNRoe5mzIPKdcZijmm-75">
          <mxGeometry relative="1" as="geometry" />
        </mxCell>
        <mxCell id="9ojNRoe5mzIPKdcZijmm-6" value="Cliente" style="whiteSpace=wrap;html=1;align=center;" vertex="1" parent="1">
          <mxGeometry x="840" y="250" width="100" height="40" as="geometry" />
        </mxCell>
        <mxCell id="9ojNRoe5mzIPKdcZijmm-23" style="edgeStyle=orthogonalEdgeStyle;rounded=0;orthogonalLoop=1;jettySize=auto;html=1;exitX=0.5;exitY=0;exitDx=0;exitDy=0;entryX=0.5;entryY=1;entryDx=0;entryDy=0;" edge="1" parent="1" source="9ojNRoe5mzIPKdcZijmm-7" target="9ojNRoe5mzIPKdcZijmm-16">
          <mxGeometry relative="1" as="geometry" />
        </mxCell>
        <mxCell id="9ojNRoe5mzIPKdcZijmm-101" value="(0,*)" style="edgeLabel;html=1;align=center;verticalAlign=middle;resizable=0;points=[];" vertex="1" connectable="0" parent="9ojNRoe5mzIPKdcZijmm-23">
          <mxGeometry x="-0.643" y="2" relative="1" as="geometry">
            <mxPoint as="offset" />
          </mxGeometry>
        </mxCell>
        <mxCell id="9ojNRoe5mzIPKdcZijmm-49" style="edgeStyle=orthogonalEdgeStyle;rounded=0;orthogonalLoop=1;jettySize=auto;html=1;entryX=0;entryY=0.5;entryDx=0;entryDy=0;" edge="1" parent="1" source="9ojNRoe5mzIPKdcZijmm-7" target="9ojNRoe5mzIPKdcZijmm-46">
          <mxGeometry relative="1" as="geometry" />
        </mxCell>
        <mxCell id="9ojNRoe5mzIPKdcZijmm-50" style="edgeStyle=orthogonalEdgeStyle;rounded=0;orthogonalLoop=1;jettySize=auto;html=1;entryX=0;entryY=0.5;entryDx=0;entryDy=0;" edge="1" parent="1" source="9ojNRoe5mzIPKdcZijmm-7" target="9ojNRoe5mzIPKdcZijmm-45">
          <mxGeometry relative="1" as="geometry" />
        </mxCell>
        <mxCell id="9ojNRoe5mzIPKdcZijmm-51" style="edgeStyle=orthogonalEdgeStyle;rounded=0;orthogonalLoop=1;jettySize=auto;html=1;entryX=0;entryY=0.5;entryDx=0;entryDy=0;" edge="1" parent="1" source="9ojNRoe5mzIPKdcZijmm-7" target="9ojNRoe5mzIPKdcZijmm-44">
          <mxGeometry relative="1" as="geometry" />
        </mxCell>
        <mxCell id="9ojNRoe5mzIPKdcZijmm-52" style="edgeStyle=orthogonalEdgeStyle;rounded=0;orthogonalLoop=1;jettySize=auto;html=1;entryX=0;entryY=0.5;entryDx=0;entryDy=0;" edge="1" parent="1" source="9ojNRoe5mzIPKdcZijmm-7" target="9ojNRoe5mzIPKdcZijmm-43">
          <mxGeometry relative="1" as="geometry" />
        </mxCell>
        <mxCell id="9ojNRoe5mzIPKdcZijmm-53" style="edgeStyle=orthogonalEdgeStyle;rounded=0;orthogonalLoop=1;jettySize=auto;html=1;entryX=0;entryY=0.5;entryDx=0;entryDy=0;" edge="1" parent="1" source="9ojNRoe5mzIPKdcZijmm-7" target="9ojNRoe5mzIPKdcZijmm-42">
          <mxGeometry relative="1" as="geometry" />
        </mxCell>
        <mxCell id="9ojNRoe5mzIPKdcZijmm-54" style="edgeStyle=orthogonalEdgeStyle;rounded=0;orthogonalLoop=1;jettySize=auto;html=1;entryX=0;entryY=0.5;entryDx=0;entryDy=0;" edge="1" parent="1" source="9ojNRoe5mzIPKdcZijmm-7" target="9ojNRoe5mzIPKdcZijmm-41">
          <mxGeometry relative="1" as="geometry" />
        </mxCell>
        <mxCell id="9ojNRoe5mzIPKdcZijmm-55" style="edgeStyle=orthogonalEdgeStyle;rounded=0;orthogonalLoop=1;jettySize=auto;html=1;entryX=0;entryY=0.5;entryDx=0;entryDy=0;" edge="1" parent="1" source="9ojNRoe5mzIPKdcZijmm-7" target="9ojNRoe5mzIPKdcZijmm-47">
          <mxGeometry relative="1" as="geometry" />
        </mxCell>
        <mxCell id="9ojNRoe5mzIPKdcZijmm-7" value="Usuario" style="whiteSpace=wrap;html=1;align=center;" vertex="1" parent="1">
          <mxGeometry x="430" y="600" width="100" height="40" as="geometry" />
        </mxCell>
        <mxCell id="9ojNRoe5mzIPKdcZijmm-18" style="edgeStyle=orthogonalEdgeStyle;rounded=0;orthogonalLoop=1;jettySize=auto;html=1;entryX=1;entryY=0.5;entryDx=0;entryDy=0;" edge="1" parent="1" source="9ojNRoe5mzIPKdcZijmm-8" target="9ojNRoe5mzIPKdcZijmm-11">
          <mxGeometry relative="1" as="geometry" />
        </mxCell>
        <mxCell id="9ojNRoe5mzIPKdcZijmm-97" value="(1,*)" style="edgeLabel;html=1;align=center;verticalAlign=middle;resizable=0;points=[];" vertex="1" connectable="0" parent="9ojNRoe5mzIPKdcZijmm-18">
          <mxGeometry x="-0.6071" y="1" relative="1" as="geometry">
            <mxPoint as="offset" />
          </mxGeometry>
        </mxCell>
        <mxCell id="9ojNRoe5mzIPKdcZijmm-19" style="edgeStyle=orthogonalEdgeStyle;rounded=0;orthogonalLoop=1;jettySize=auto;html=1;entryX=0;entryY=0.5;entryDx=0;entryDy=0;" edge="1" parent="1" source="9ojNRoe5mzIPKdcZijmm-8" target="9ojNRoe5mzIPKdcZijmm-12">
          <mxGeometry relative="1" as="geometry" />
        </mxCell>
        <mxCell id="9ojNRoe5mzIPKdcZijmm-98" value="(1,1)" style="edgeLabel;html=1;align=center;verticalAlign=middle;resizable=0;points=[];" vertex="1" connectable="0" parent="9ojNRoe5mzIPKdcZijmm-19">
          <mxGeometry x="-0.7333" y="-1" relative="1" as="geometry">
            <mxPoint as="offset" />
          </mxGeometry>
        </mxCell>
        <mxCell id="9ojNRoe5mzIPKdcZijmm-22" style="edgeStyle=orthogonalEdgeStyle;rounded=0;orthogonalLoop=1;jettySize=auto;html=1;exitX=0.5;exitY=1;exitDx=0;exitDy=0;entryX=0.5;entryY=0;entryDx=0;entryDy=0;" edge="1" parent="1" source="9ojNRoe5mzIPKdcZijmm-8" target="9ojNRoe5mzIPKdcZijmm-16">
          <mxGeometry relative="1" as="geometry" />
        </mxCell>
        <mxCell id="9ojNRoe5mzIPKdcZijmm-100" value="(1,1)" style="edgeLabel;html=1;align=center;verticalAlign=middle;resizable=0;points=[];" vertex="1" connectable="0" parent="9ojNRoe5mzIPKdcZijmm-22">
          <mxGeometry x="-0.7413" y="-1" relative="1" as="geometry">
            <mxPoint as="offset" />
          </mxGeometry>
        </mxCell>
        <mxCell id="9ojNRoe5mzIPKdcZijmm-84" style="edgeStyle=orthogonalEdgeStyle;rounded=0;orthogonalLoop=1;jettySize=auto;html=1;entryX=0;entryY=0.5;entryDx=0;entryDy=0;" edge="1" parent="1" source="9ojNRoe5mzIPKdcZijmm-8" target="9ojNRoe5mzIPKdcZijmm-80">
          <mxGeometry relative="1" as="geometry" />
        </mxCell>
        <mxCell id="9ojNRoe5mzIPKdcZijmm-87" style="edgeStyle=orthogonalEdgeStyle;rounded=0;orthogonalLoop=1;jettySize=auto;html=1;entryX=0;entryY=0.5;entryDx=0;entryDy=0;" edge="1" parent="1" source="9ojNRoe5mzIPKdcZijmm-8" target="9ojNRoe5mzIPKdcZijmm-77">
          <mxGeometry relative="1" as="geometry" />
        </mxCell>
        <mxCell id="9ojNRoe5mzIPKdcZijmm-8" value="Alquiler" style="whiteSpace=wrap;html=1;align=center;" vertex="1" parent="1">
          <mxGeometry x="430" y="250" width="100" height="40" as="geometry" />
        </mxCell>
        <mxCell id="9ojNRoe5mzIPKdcZijmm-92" style="edgeStyle=orthogonalEdgeStyle;rounded=0;orthogonalLoop=1;jettySize=auto;html=1;entryX=0;entryY=0.5;entryDx=0;entryDy=0;" edge="1" parent="1" source="9ojNRoe5mzIPKdcZijmm-11" target="9ojNRoe5mzIPKdcZijmm-91">
          <mxGeometry relative="1" as="geometry" />
        </mxCell>
        <mxCell id="9ojNRoe5mzIPKdcZijmm-93" style="edgeStyle=orthogonalEdgeStyle;rounded=0;orthogonalLoop=1;jettySize=auto;html=1;entryX=0;entryY=0.5;entryDx=0;entryDy=0;" edge="1" parent="1" source="9ojNRoe5mzIPKdcZijmm-11" target="9ojNRoe5mzIPKdcZijmm-90">
          <mxGeometry relative="1" as="geometry" />
        </mxCell>
        <mxCell id="9ojNRoe5mzIPKdcZijmm-11" value="" style="shape=rhombus;perimeter=rhombusPerimeter;whiteSpace=wrap;html=1;align=center;" vertex="1" parent="1">
          <mxGeometry x="230" y="235" width="70" height="70" as="geometry" />
        </mxCell>
        <mxCell id="9ojNRoe5mzIPKdcZijmm-12" value="" style="shape=rhombus;perimeter=rhombusPerimeter;whiteSpace=wrap;html=1;align=center;" vertex="1" parent="1">
          <mxGeometry x="650" y="235" width="70" height="70" as="geometry" />
        </mxCell>
        <mxCell id="9ojNRoe5mzIPKdcZijmm-16" value="" style="shape=rhombus;perimeter=rhombusPerimeter;whiteSpace=wrap;html=1;align=center;" vertex="1" parent="1">
          <mxGeometry x="445" y="400" width="70" height="70" as="geometry" />
        </mxCell>
        <mxCell id="9ojNRoe5mzIPKdcZijmm-24" value="Codigo Pelicula" style="ellipse;whiteSpace=wrap;html=1;align=center;" vertex="1" parent="1">
          <mxGeometry x="-200" y="110" width="100" height="40" as="geometry" />
        </mxCell>
        <mxCell id="9ojNRoe5mzIPKdcZijmm-25" value="Nombre" style="ellipse;whiteSpace=wrap;html=1;align=center;" vertex="1" parent="1">
          <mxGeometry x="-200" y="160" width="100" height="40" as="geometry" />
        </mxCell>
        <mxCell id="9ojNRoe5mzIPKdcZijmm-26" value="Director" style="ellipse;whiteSpace=wrap;html=1;align=center;" vertex="1" parent="1">
          <mxGeometry x="-200" y="210" width="100" height="40" as="geometry" />
        </mxCell>
        <mxCell id="9ojNRoe5mzIPKdcZijmm-27" value="Fecha de Estreno" style="ellipse;whiteSpace=wrap;html=1;align=center;" vertex="1" parent="1">
          <mxGeometry x="-200" y="260" width="100" height="40" as="geometry" />
        </mxCell>
        <mxCell id="9ojNRoe5mzIPKdcZijmm-28" value="ValoraciÃ³n del Publico" style="ellipse;whiteSpace=wrap;html=1;align=center;" vertex="1" parent="1">
          <mxGeometry x="-200" y="310" width="100" height="40" as="geometry" />
        </mxCell>
        <mxCell id="9ojNRoe5mzIPKdcZijmm-30" value="GÃ©nero" style="ellipse;whiteSpace=wrap;html=1;align=center;" vertex="1" parent="1">
          <mxGeometry x="-200" y="360" width="100" height="40" as="geometry" />
        </mxCell>
        <mxCell id="9ojNRoe5mzIPKdcZijmm-31" value="&lt;u&gt;Id_pelicula&lt;/u&gt;" style="ellipse;whiteSpace=wrap;html=1;align=center;" vertex="1" parent="1">
          <mxGeometry x="-200" y="60" width="100" height="40" as="geometry" />
        </mxCell>
        <mxCell id="9ojNRoe5mzIPKdcZijmm-32" value="Actores" style="ellipse;shape=doubleEllipse;margin=3;whiteSpace=wrap;html=1;align=center;" vertex="1" parent="1">
          <mxGeometry x="-200" y="415" width="100" height="40" as="geometry" />
        </mxCell>
        <mxCell id="9ojNRoe5mzIPKdcZijmm-41" value="Nombre" style="ellipse;whiteSpace=wrap;html=1;align=center;" vertex="1" parent="1">
          <mxGeometry x="635" y="500" width="100" height="40" as="geometry" />
        </mxCell>
        <mxCell id="9ojNRoe5mzIPKdcZijmm-42" value="Apellido" style="ellipse;whiteSpace=wrap;html=1;align=center;" vertex="1" parent="1">
          <mxGeometry x="635" y="550" width="100" height="40" as="geometry" />
        </mxCell>
        <mxCell id="9ojNRoe5mzIPKdcZijmm-43" value="Direccion" style="ellipse;whiteSpace=wrap;html=1;align=center;" vertex="1" parent="1">
          <mxGeometry x="635" y="600" width="100" height="40" as="geometry" />
        </mxCell>
        <mxCell id="9ojNRoe5mzIPKdcZijmm-44" value="ContraseÃ±a" style="ellipse;whiteSpace=wrap;html=1;align=center;" vertex="1" parent="1">
          <mxGeometry x="635" y="650" width="100" height="40" as="geometry" />
        </mxCell>
        <mxCell id="9ojNRoe5mzIPKdcZijmm-45" value="Turno" style="ellipse;whiteSpace=wrap;html=1;align=center;" vertex="1" parent="1">
          <mxGeometry x="635" y="700" width="100" height="40" as="geometry" />
        </mxCell>
        <mxCell id="9ojNRoe5mzIPKdcZijmm-46" value="Nivel de acceso" style="ellipse;whiteSpace=wrap;html=1;align=center;" vertex="1" parent="1">
          <mxGeometry x="635" y="750" width="100" height="40" as="geometry" />
        </mxCell>
        <mxCell id="9ojNRoe5mzIPKdcZijmm-47" value="&lt;u&gt;Id_usuario&lt;/u&gt;" style="ellipse;whiteSpace=wrap;html=1;align=center;" vertex="1" parent="1">
          <mxGeometry x="635" y="450" width="100" height="40" as="geometry" />
        </mxCell>
        <mxCell id="9ojNRoe5mzIPKdcZijmm-56" value="Nombre" style="ellipse;whiteSpace=wrap;html=1;align=center;" vertex="1" parent="1">
          <mxGeometry x="1060" y="150" width="100" height="40" as="geometry" />
        </mxCell>
        <mxCell id="9ojNRoe5mzIPKdcZijmm-57" value="Apellido" style="ellipse;whiteSpace=wrap;html=1;align=center;" vertex="1" parent="1">
          <mxGeometry x="1060" y="200" width="100" height="40" as="geometry" />
        </mxCell>
        <mxCell id="9ojNRoe5mzIPKdcZijmm-58" value="Direccion" style="ellipse;whiteSpace=wrap;html=1;align=center;" vertex="1" parent="1">
          <mxGeometry x="1060" y="250" width="100" height="40" as="geometry" />
        </mxCell>
        <mxCell id="9ojNRoe5mzIPKdcZijmm-59" value="DNI" style="ellipse;whiteSpace=wrap;html=1;align=center;" vertex="1" parent="1">
          <mxGeometry x="1060" y="300" width="100" height="40" as="geometry" />
        </mxCell>
        <mxCell id="9ojNRoe5mzIPKdcZijmm-60" value="Email" style="ellipse;whiteSpace=wrap;html=1;align=center;" vertex="1" parent="1">
          <mxGeometry x="1060" y="350" width="100" height="40" as="geometry" />
        </mxCell>
        <mxCell id="9ojNRoe5mzIPKdcZijmm-61" value="Genero preferido" style="ellipse;whiteSpace=wrap;html=1;align=center;" vertex="1" parent="1">
          <mxGeometry x="1060" y="400" width="100" height="40" as="geometry" />
        </mxCell>
        <mxCell id="9ojNRoe5mzIPKdcZijmm-62" value="&lt;u&gt;Id_cliente&lt;/u&gt;" style="ellipse;whiteSpace=wrap;html=1;align=center;" vertex="1" parent="1">
          <mxGeometry x="1060" y="100" width="100" height="40" as="geometry" />
        </mxCell>
        <mxCell id="9ojNRoe5mzIPKdcZijmm-75" value="Telefono" style="ellipse;whiteSpace=wrap;html=1;align=center;" vertex="1" parent="1">
          <mxGeometry x="1060" y="450" width="100" height="40" as="geometry" />
        </mxCell>
        <mxCell id="9ojNRoe5mzIPKdcZijmm-77" value="&lt;u&gt;Id_alquiler&lt;/u&gt;" style="ellipse;whiteSpace=wrap;html=1;align=center;" vertex="1" parent="1">
          <mxGeometry x="510" y="85" width="100" height="40" as="geometry" />
        </mxCell>
        <mxCell id="9ojNRoe5mzIPKdcZijmm-80" value="Fecha de Entrega" style="ellipse;whiteSpace=wrap;html=1;align=center;" vertex="1" parent="1">
          <mxGeometry x="510" y="135" width="100" height="40" as="geometry" />
        </mxCell>
        <mxCell id="9ojNRoe5mzIPKdcZijmm-90" value="Estado" style="ellipse;whiteSpace=wrap;html=1;align=center;" vertex="1" parent="1">
          <mxGeometry x="300" y="85" width="100" height="40" as="geometry" />
        </mxCell>
        <mxCell id="9ojNRoe5mzIPKdcZijmm-91" value="Fecha de devolucion" style="ellipse;whiteSpace=wrap;html=1;align=center;" vertex="1" parent="1">
          <mxGeometry x="300" y="135" width="100" height="40" as="geometry" />
        </mxCell>
      </root>
    </mxGraphModel>
  </diagram>
</mxfile>
